<svg width="262" height="260" viewBox="0 0 262 260" fill="none" xmlns="http://www.w3.org/2000/svg">
<path d="M9.96487 156.624C8.28487 156.624 6.81287 156.264 5.54887 155.544C4.30087 154.824 3.34087 153.808 2.66887 152.496C1.99687 151.168 1.66087 149.616 1.66087 147.84C1.66087 146.08 1.99687 144.544 2.66887 143.232C3.34087 141.904 4.30087 140.888 5.54887 140.184C6.81287 139.464 8.28487 139.104 9.96487 139.104C11.1169 139.104 12.1969 139.288 13.2049 139.656C14.2289 140.008 15.0769 140.504 15.7489 141.144L14.7409 143.4C13.9729 142.776 13.2049 142.328 12.4369 142.056C11.6849 141.768 10.8769 141.624 10.0129 141.624C8.36487 141.624 7.08487 142.16 6.17287 143.232C5.27687 144.304 4.82887 145.84 4.82887 147.84C4.82887 149.856 5.27687 151.408 6.17287 152.496C7.06887 153.568 8.34887 154.104 10.0129 154.104C10.8769 154.104 11.6849 153.968 12.4369 153.696C13.2049 153.408 13.9729 152.952 14.7409 152.328L15.7489 154.584C15.0769 155.224 14.2289 155.728 13.2049 156.096C12.1969 156.448 11.1169 156.624 9.96487 156.624ZM23.6882 156.6C22.4562 156.6 21.3682 156.344 20.4242 155.832C19.4962 155.32 18.7762 154.592 18.2642 153.648C17.7682 152.688 17.5202 151.568 17.5202 150.288C17.5202 149.008 17.7682 147.896 18.2642 146.952C18.7762 145.992 19.4962 145.256 20.4242 144.744C21.3682 144.232 22.4562 143.976 23.6882 143.976C24.9042 143.976 25.9762 144.232 26.9042 144.744C27.8322 145.256 28.5442 145.992 29.0402 146.952C29.5522 147.896 29.8082 149.008 29.8082 150.288C29.8082 151.568 29.5522 152.688 29.0402 153.648C28.5442 154.592 27.8322 155.32 26.9042 155.832C25.9762 156.344 24.9042 156.6 23.6882 156.6ZM23.6642 154.248C24.6882 154.248 25.4642 153.92 25.9922 153.264C26.5362 152.592 26.8082 151.6 26.8082 150.288C26.8082 148.992 26.5362 148.008 25.9922 147.336C25.4482 146.648 24.6802 146.304 23.6882 146.304C22.6802 146.304 21.9042 146.648 21.3602 147.336C20.8162 148.008 20.5442 148.992 20.5442 150.288C20.5442 151.6 20.8082 152.592 21.3362 153.264C21.8802 153.92 22.6562 154.248 23.6642 154.248ZM39.3313 143.976C42.2273 143.976 43.6753 145.64 43.6753 148.968V156.408H40.6753V149.112C40.6753 148.152 40.4913 147.456 40.1233 147.024C39.7553 146.576 39.1873 146.352 38.4193 146.352C37.5073 146.352 36.7713 146.648 36.2113 147.24C35.6513 147.816 35.3713 148.584 35.3713 149.544V156.408H32.3953V147.72C32.3953 146.44 32.3313 145.296 32.2033 144.288H35.0113L35.2273 146.28C35.6433 145.544 36.2033 144.976 36.9073 144.576C37.6273 144.176 38.4353 143.976 39.3313 143.976ZM51.2962 156.6C49.1042 156.6 47.3602 156.088 46.0642 155.064L46.9042 152.952C48.2002 153.912 49.6802 154.392 51.3442 154.392C52.0642 154.392 52.6162 154.272 53.0002 154.032C53.4002 153.792 53.6002 153.456 53.6002 153.024C53.6002 152.656 53.4642 152.368 53.1922 152.16C52.9202 151.936 52.4562 151.744 51.8002 151.584L49.7842 151.128C47.5762 150.648 46.4722 149.52 46.4722 147.744C46.4722 147.008 46.6802 146.36 47.0962 145.8C47.5122 145.224 48.0962 144.776 48.8482 144.456C49.6002 144.136 50.4722 143.976 51.4642 143.976C52.3282 143.976 53.1602 144.112 53.9602 144.384C54.7602 144.64 55.4642 145.016 56.0722 145.512L55.1842 147.552C53.9682 146.656 52.7202 146.208 51.4402 146.208C50.7522 146.208 50.2162 146.336 49.8322 146.592C49.4482 146.848 49.2562 147.2 49.2562 147.648C49.2562 148 49.3682 148.28 49.5922 148.488C49.8322 148.696 50.2322 148.872 50.7922 149.016L52.8562 149.472C54.0562 149.744 54.9282 150.168 55.4722 150.744C56.0322 151.304 56.3122 152.04 56.3122 152.952C56.3122 154.072 55.8642 154.96 54.9682 155.616C54.0722 156.272 52.8482 156.6 51.2962 156.6ZM69.9197 144.288V156.408H66.9917V154.536C66.6077 155.208 66.0957 155.72 65.4557 156.072C64.8157 156.424 64.0797 156.6 63.2477 156.6C60.2877 156.6 58.8077 154.936 58.8077 151.608V144.288H61.7837V151.632C61.7837 152.512 61.9597 153.16 62.3117 153.576C62.6797 153.992 63.2397 154.2 63.9917 154.2C64.8717 154.2 65.5757 153.912 66.1037 153.336C66.6317 152.76 66.8957 151.992 66.8957 151.032V144.288H69.9197ZM73.1766 138.744H76.1526V156.408H73.1766V138.744ZM83.2504 146.544V151.968C83.2504 153.392 83.9144 154.104 85.2424 154.104C85.6104 154.104 86.0104 154.04 86.4424 153.912V156.288C85.9144 156.48 85.2744 156.576 84.5224 156.576C83.1464 156.576 82.0904 156.192 81.3544 155.424C80.6184 154.656 80.2504 153.552 80.2504 152.112V146.544H77.9224V144.288H80.2504V141.336L83.2504 140.328V144.288H86.4664V146.544H83.2504ZM100.12 144.288V156.408H97.1681V154.464C96.8001 155.136 96.2721 155.664 95.5841 156.048C94.8961 156.416 94.1121 156.6 93.2321 156.6C92.1761 156.6 91.2401 156.344 90.4241 155.832C89.6081 155.32 88.9761 154.592 88.5281 153.648C88.0801 152.704 87.8561 151.608 87.8561 150.36C87.8561 149.112 88.0801 148.008 88.5281 147.048C88.9921 146.072 89.6321 145.32 90.4481 144.792C91.2641 144.248 92.1921 143.976 93.2321 143.976C94.1121 143.976 94.8961 144.168 95.5841 144.552C96.2721 144.92 96.8001 145.44 97.1681 146.112V144.288H100.12ZM94.0481 154.248C95.0401 154.248 95.8081 153.904 96.3521 153.216C96.8961 152.528 97.1681 151.56 97.1681 150.312C97.1681 149.032 96.8961 148.048 96.3521 147.36C95.8081 146.672 95.0321 146.328 94.0241 146.328C93.0321 146.328 92.2561 146.688 91.6961 147.408C91.1521 148.112 90.8801 149.096 90.8801 150.36C90.8801 151.608 91.1521 152.568 91.6961 153.24C92.2561 153.912 93.0401 154.248 94.0481 154.248ZM107.203 146.544V151.968C107.203 153.392 107.867 154.104 109.195 154.104C109.563 154.104 109.963 154.04 110.395 153.912V156.288C109.867 156.48 109.227 156.576 108.475 156.576C107.099 156.576 106.043 156.192 105.307 155.424C104.571 154.656 104.203 153.552 104.203 152.112V146.544H101.875V144.288H104.203V141.336L107.203 140.328V144.288H110.419V146.544H107.203ZM112.481 144.288H115.457V156.408H112.481V144.288ZM115.625 138.792V141.744H112.289V138.792H115.625ZM124.235 156.6C123.003 156.6 121.915 156.344 120.971 155.832C120.043 155.32 119.323 154.592 118.811 153.648C118.315 152.688 118.067 151.568 118.067 150.288C118.067 149.008 118.315 147.896 118.811 146.952C119.323 145.992 120.043 145.256 120.971 144.744C121.915 144.232 123.003 143.976 124.235 143.976C125.451 143.976 126.523 144.232 127.451 144.744C128.379 145.256 129.091 145.992 129.587 146.952C130.099 147.896 130.355 149.008 130.355 150.288C130.355 151.568 130.099 152.688 129.587 153.648C129.091 154.592 128.379 155.32 127.451 155.832C126.523 156.344 125.451 156.6 124.235 156.6ZM124.211 154.248C125.235 154.248 126.011 153.92 126.539 153.264C127.083 152.592 127.355 151.6 127.355 150.288C127.355 148.992 127.083 148.008 126.539 147.336C125.995 146.648 125.227 146.304 124.235 146.304C123.227 146.304 122.451 146.648 121.907 147.336C121.363 148.008 121.091 148.992 121.091 150.288C121.091 151.6 121.355 152.592 121.883 153.264C122.427 153.92 123.203 154.248 124.211 154.248ZM139.878 143.976C142.774 143.976 144.222 145.64 144.222 148.968V156.408H141.222V149.112C141.222 148.152 141.038 147.456 140.67 147.024C140.302 146.576 139.734 146.352 138.966 146.352C138.054 146.352 137.318 146.648 136.758 147.24C136.198 147.816 135.918 148.584 135.918 149.544V156.408H132.942V147.72C132.942 146.44 132.878 145.296 132.75 144.288H135.558L135.774 146.28C136.19 145.544 136.75 144.976 137.454 144.576C138.174 144.176 138.982 143.976 139.878 143.976Z" fill="black"/>
<g clip-path="url(#clip0_33_15)">
<path d="M64.9697 0H2.32971C1.04143 0 0 1.02822 0 2.30017V92.7074C0 93.9794 1.04143 95.0076 2.32971 95.0076H64.9697C66.258 95.0076 67.2994 93.9794 67.2994 92.7074V2.30017C67.2917 1.02822 66.2502 0 64.9697 0Z" fill="url(#paint0_linear_33_15)"/>
<path d="M60.858 4.09766H6.43371C5.184 4.09766 4.16571 5.10303 4.16571 6.34451V81.0923C4.16571 82.3338 5.184 83.3316 6.43371 83.3316H60.858C62.1154 83.3316 63.126 82.3262 63.126 81.0923V6.34451C63.126 5.10303 62.1154 4.09766 60.858 4.09766Z" fill="white"/>
<path d="M44.7737 39.636H22.5257C21.5074 39.636 20.682 38.8211 20.682 37.8157V15.8422C20.682 14.8369 21.5074 14.0219 22.5257 14.0219H44.7737C45.792 14.0219 46.6174 14.8369 46.6174 15.8422V37.8081C46.6174 38.8135 45.792 39.636 44.7737 39.636Z" fill="url(#paint1_linear_33_15)"/>
<path d="M33.6497 92.5475C35.5413 92.5475 37.0748 91.0335 37.0748 89.1658C37.0748 87.2981 35.5413 85.7841 33.6497 85.7841C31.758 85.7841 30.2245 87.2981 30.2245 89.1658C30.2245 91.0335 31.758 92.5475 33.6497 92.5475Z" fill="white"/>
<path d="M53.0357 51.015H14.256C13.2763 51.015 12.474 50.2229 12.474 49.2556C12.474 48.2883 13.2763 47.4962 14.256 47.4962H53.028C54.0077 47.4962 54.81 48.2883 54.81 49.2556C54.81 50.2229 54.0154 51.015 53.0357 51.015Z" fill="url(#paint2_linear_33_15)"/>
<path opacity="0.6" d="M46.4708 60.764H13.608C12.9831 60.764 12.4817 60.2613 12.4817 59.652V59.5302C12.4817 58.9132 12.9909 58.4182 13.608 58.4182H46.4708C47.0957 58.4182 47.5971 58.9208 47.5971 59.5302V59.652C47.6048 60.2613 47.0957 60.764 46.4708 60.764Z" fill="url(#paint3_linear_33_15)"/>
<path opacity="0.3" d="M40.2146 66.9562H13.5C12.9369 66.9562 12.474 66.4992 12.474 65.9432V65.6081C12.474 65.0521 12.9369 64.5951 13.5 64.5951H40.2068C40.77 64.5951 41.2328 65.0521 41.2328 65.6081V65.9432C41.2328 66.4992 40.77 66.9562 40.2146 66.9562Z" fill="url(#paint4_linear_33_15)"/>
<path opacity="0.6" d="M43.578 72.6914H13.5617C12.9677 72.6914 12.4817 72.2116 12.4817 71.6251V71.4119C12.4817 70.8254 12.9677 70.3456 13.5617 70.3456H43.578C44.172 70.3456 44.658 70.8254 44.658 71.4119V71.6251C44.658 72.204 44.172 72.6914 43.578 72.6914Z" fill="url(#paint5_linear_33_15)"/>
<path d="M33.7166 26.1208C35.9441 26.1208 37.7498 24.3141 37.7498 22.0854C37.7498 19.8566 35.9441 18.05 33.7166 18.05C31.489 18.05 29.6833 19.8566 29.6833 22.0854C29.6833 24.3141 31.4805 26.1208 33.7166 26.1208ZM33.7166 28.1385C31.0249 28.1385 25.65 29.4892 25.65 32.1739V33.1869C25.65 33.7441 26.1056 34.2 26.6625 34.2H40.7875C41.3444 34.2 41.8 33.7441 41.8 33.1869V32.1739C41.7831 29.4977 36.4082 28.1385 33.7166 28.1385Z" fill="white"/>
</g>
<path d="M2.472 184.608H9.336V185.456H3.464V189.776H9.016V190.656H3.464V196H2.472V184.608ZM14.5496 187.792C14.8163 187.792 15.051 187.813 15.2536 187.856L15.2056 188.736C15.003 188.693 14.7576 188.672 14.4696 188.672C13.659 188.672 13.051 188.933 12.6456 189.456C12.251 189.968 12.0536 190.581 12.0536 191.296V196H11.0936V190.208C11.0936 189.376 11.051 188.635 10.9656 187.984H11.8936L12.0216 189.472C12.2243 188.928 12.5496 188.512 12.9976 188.224C13.4563 187.936 13.9736 187.792 14.5496 187.792ZM17.0275 191.872V191.92C17.0275 192.997 17.2728 193.824 17.7635 194.4C18.2648 194.965 18.9902 195.248 19.9395 195.248C20.8995 195.248 21.7795 194.917 22.5795 194.256L22.9635 195.024C22.6115 195.355 22.1635 195.621 21.6195 195.824C21.0755 196.016 20.5155 196.112 19.9395 196.112C18.7235 196.112 17.7635 195.744 17.0595 195.008C16.3555 194.272 16.0035 193.259 16.0035 191.968C16.0035 191.147 16.1582 190.421 16.4675 189.792C16.7875 189.152 17.2302 188.661 17.7955 188.32C18.3608 187.968 19.0115 187.792 19.7475 187.792C20.8035 187.792 21.6248 188.133 22.2115 188.816C22.8088 189.499 23.1075 190.448 23.1075 191.664V191.872H17.0275ZM19.7475 188.592C19.0115 188.592 18.4142 188.816 17.9555 189.264C17.4968 189.701 17.2088 190.32 17.0915 191.12H22.1795C22.1155 190.299 21.8755 189.675 21.4595 189.248C21.0435 188.811 20.4728 188.592 19.7475 188.592ZM25.715 191.872V191.92C25.715 192.997 25.9603 193.824 26.451 194.4C26.9523 194.965 27.6777 195.248 28.627 195.248C29.587 195.248 30.467 194.917 31.267 194.256L31.651 195.024C31.299 195.355 30.851 195.621 30.307 195.824C29.763 196.016 29.203 196.112 28.627 196.112C27.411 196.112 26.451 195.744 25.747 195.008C25.043 194.272 24.691 193.259 24.691 191.968C24.691 191.147 24.8457 190.421 25.155 189.792C25.475 189.152 25.9177 188.661 26.483 188.32C27.0483 187.968 27.699 187.792 28.435 187.792C29.491 187.792 30.3123 188.133 30.899 188.816C31.4963 189.499 31.795 190.448 31.795 191.664V191.872H25.715ZM28.435 188.592C27.699 188.592 27.1017 188.816 26.643 189.264C26.1843 189.701 25.8963 190.32 25.779 191.12H30.867C30.803 190.299 30.563 189.675 30.147 189.248C29.731 188.811 29.1603 188.592 28.435 188.592ZM41.2166 196.112C40.4593 196.112 39.798 195.941 39.2326 195.6C38.6673 195.259 38.23 194.779 37.9206 194.16C37.6113 193.531 37.4566 192.805 37.4566 191.984C37.4566 191.152 37.6113 190.421 37.9206 189.792C38.23 189.152 38.6726 188.661 39.2486 188.32C39.8246 187.968 40.4913 187.792 41.2486 187.792C41.7926 187.792 42.31 187.888 42.8006 188.08C43.302 188.261 43.7126 188.517 44.0326 188.848L43.6486 189.616C43.2326 189.275 42.8326 189.029 42.4486 188.88C42.0753 188.72 41.686 188.64 41.2806 188.64C40.4166 188.64 39.734 188.939 39.2326 189.536C38.7313 190.123 38.4806 190.939 38.4806 191.984C38.4806 193.008 38.726 193.808 39.2166 194.384C39.718 194.96 40.406 195.248 41.2806 195.248C41.686 195.248 42.0753 195.173 42.4486 195.024C42.8326 194.864 43.2326 194.619 43.6486 194.288L44.0326 195.04C43.6913 195.371 43.2646 195.632 42.7526 195.824C42.2513 196.016 41.7393 196.112 41.2166 196.112ZM48.9964 196.112C48.2604 196.112 47.6097 195.941 47.0444 195.6C46.4897 195.259 46.0577 194.773 45.7484 194.144C45.4497 193.515 45.3004 192.784 45.3004 191.952C45.3004 191.12 45.4497 190.389 45.7484 189.76C46.0577 189.131 46.4897 188.645 47.0444 188.304C47.6097 187.963 48.2604 187.792 48.9964 187.792C49.7217 187.792 50.3617 187.963 50.9164 188.304C51.471 188.645 51.8977 189.131 52.1964 189.76C52.5057 190.389 52.6604 191.12 52.6604 191.952C52.6604 192.784 52.5057 193.515 52.1964 194.144C51.8977 194.773 51.471 195.259 50.9164 195.6C50.3617 195.941 49.7217 196.112 48.9964 196.112ZM48.9804 195.248C49.8337 195.248 50.4897 194.965 50.9484 194.4C51.4177 193.824 51.6524 193.008 51.6524 191.952C51.6524 190.907 51.4177 190.096 50.9484 189.52C50.479 188.933 49.8284 188.64 48.9964 188.64C48.1537 188.64 47.4977 188.933 47.0284 189.52C46.559 190.096 46.3244 190.907 46.3244 191.952C46.3244 193.019 46.5537 193.835 47.0124 194.4C47.471 194.965 48.127 195.248 48.9804 195.248ZM58.5248 187.792C60.4554 187.792 61.4208 188.827 61.4208 190.896V196H60.4448V190.96C60.4448 190.16 60.2794 189.573 59.9488 189.2C59.6288 188.827 59.1221 188.64 58.4288 188.64C57.6288 188.64 56.9834 188.885 56.4928 189.376C56.0021 189.867 55.7568 190.528 55.7568 191.36V196H54.7968V190.208C54.7968 189.376 54.7541 188.635 54.6688 187.984H55.5968L55.7248 189.456C55.9701 188.912 56.3381 188.501 56.8288 188.224C57.3194 187.936 57.8848 187.792 58.5248 187.792ZM66.6548 196.112C65.3534 196.112 64.3241 195.755 63.5668 195.04L63.9188 194.288C64.3454 194.64 64.7721 194.891 65.1988 195.04C65.6361 195.189 66.1374 195.264 66.7028 195.264C67.3641 195.264 67.8654 195.152 68.2068 194.928C68.5588 194.693 68.7348 194.357 68.7348 193.92C68.7348 193.557 68.6174 193.275 68.3828 193.072C68.1588 192.859 67.7854 192.688 67.2628 192.56L65.9028 192.256C65.2628 192.107 64.7561 191.84 64.3828 191.456C64.0201 191.072 63.8388 190.624 63.8388 190.112C63.8388 189.408 64.1054 188.848 64.6388 188.432C65.1828 188.005 65.9028 187.792 66.7988 187.792C67.3641 187.792 67.8868 187.883 68.3668 188.064C68.8574 188.245 69.2628 188.507 69.5828 188.848L69.2148 189.6C68.4788 188.96 67.6734 188.64 66.7988 188.64C66.1801 188.64 65.7001 188.763 65.3588 189.008C65.0174 189.253 64.8468 189.595 64.8468 190.032C64.8468 190.395 64.9534 190.688 65.1668 190.912C65.3908 191.136 65.7321 191.301 66.1908 191.408L67.5668 191.744C69.0068 192.064 69.7268 192.773 69.7268 193.872C69.7268 194.544 69.4494 195.088 68.8948 195.504C68.3401 195.909 67.5934 196.112 66.6548 196.112ZM78.401 187.984V196H77.457V194.544C77.201 195.056 76.8383 195.445 76.369 195.712C75.8997 195.979 75.361 196.112 74.753 196.112C73.8143 196.112 73.105 195.851 72.625 195.328C72.145 194.805 71.905 194.032 71.905 193.008V187.984H72.865V192.944C72.865 193.733 73.025 194.315 73.345 194.688C73.665 195.061 74.161 195.248 74.833 195.248C75.6223 195.248 76.2517 195.003 76.721 194.512C77.1903 194.011 77.425 193.349 77.425 192.528V187.984H78.401ZM81.0624 184.224H82.0224V196H81.0624V184.224ZM86.063 188.768V193.536C86.063 194.176 86.1857 194.619 86.431 194.864C86.6763 195.109 87.039 195.232 87.519 195.232C87.8177 195.232 88.1057 195.184 88.383 195.088V195.968C88.0417 196.053 87.695 196.096 87.343 196.096C86.639 196.096 86.0843 195.899 85.679 195.504C85.2843 195.109 85.087 194.517 85.087 193.728V188.768H83.503V187.984H85.087V185.856L86.063 185.488V187.984H88.431V188.768H86.063ZM96.8936 187.984V196H95.9176V194.464C95.683 194.997 95.3256 195.408 94.8456 195.696C94.3763 195.973 93.811 196.112 93.1496 196.112C92.435 196.112 91.8056 195.947 91.2616 195.616C90.7283 195.275 90.3123 194.795 90.0136 194.176C89.7256 193.547 89.5816 192.816 89.5816 191.984C89.5816 191.152 89.731 190.421 90.0296 189.792C90.3283 189.152 90.7443 188.661 91.2776 188.32C91.8216 187.968 92.4456 187.792 93.1496 187.792C93.8003 187.792 94.3603 187.931 94.8296 188.208C95.3096 188.485 95.6723 188.891 95.9176 189.424V187.984H96.8936ZM93.2936 195.248C94.1256 195.248 94.771 194.96 95.2296 194.384C95.6883 193.808 95.9176 192.997 95.9176 191.952C95.9176 190.896 95.6883 190.08 95.2296 189.504C94.771 188.928 94.1203 188.64 93.2776 188.64C92.435 188.64 91.779 188.939 91.3096 189.536C90.8403 190.123 90.6056 190.939 90.6056 191.984C90.6056 193.019 90.8403 193.824 91.3096 194.4C91.779 194.965 92.4403 195.248 93.2936 195.248ZM100.907 188.768V193.536C100.907 194.176 101.029 194.619 101.275 194.864C101.52 195.109 101.883 195.232 102.363 195.232C102.661 195.232 102.949 195.184 103.227 195.088V195.968C102.885 196.053 102.539 196.096 102.187 196.096C101.483 196.096 100.928 195.899 100.523 195.504C100.128 195.109 99.9308 194.517 99.9308 193.728V188.768H98.3468V187.984H99.9308V185.856L100.907 185.488V187.984H103.275V188.768H100.907ZM104.937 187.984H105.897V196H104.937V187.984ZM106.089 184.672V185.92H104.793V184.672H106.089ZM111.762 196.112C111.026 196.112 110.375 195.941 109.81 195.6C109.255 195.259 108.823 194.773 108.514 194.144C108.215 193.515 108.066 192.784 108.066 191.952C108.066 191.12 108.215 190.389 108.514 189.76C108.823 189.131 109.255 188.645 109.81 188.304C110.375 187.963 111.026 187.792 111.762 187.792C112.487 187.792 113.127 187.963 113.682 188.304C114.237 188.645 114.663 189.131 114.962 189.76C115.271 190.389 115.426 191.12 115.426 191.952C115.426 192.784 115.271 193.515 114.962 194.144C114.663 194.773 114.237 195.259 113.682 195.6C113.127 195.941 112.487 196.112 111.762 196.112ZM111.746 195.248C112.599 195.248 113.255 194.965 113.714 194.4C114.183 193.824 114.418 193.008 114.418 191.952C114.418 190.907 114.183 190.096 113.714 189.52C113.245 188.933 112.594 188.64 111.762 188.64C110.919 188.64 110.263 188.933 109.794 189.52C109.325 190.096 109.09 190.907 109.09 191.952C109.09 193.019 109.319 193.835 109.778 194.4C110.237 194.965 110.893 195.248 111.746 195.248ZM121.29 187.792C123.221 187.792 124.186 188.827 124.186 190.896V196H123.21V190.96C123.21 190.16 123.045 189.573 122.714 189.2C122.394 188.827 121.888 188.64 121.194 188.64C120.394 188.64 119.749 188.885 119.258 189.376C118.768 189.867 118.522 190.528 118.522 191.36V196H117.562V190.208C117.562 189.376 117.52 188.635 117.434 187.984H118.362L118.49 189.456C118.736 188.912 119.104 188.501 119.594 188.224C120.085 187.936 120.65 187.792 121.29 187.792ZM142.827 187.984L139.915 196H138.907L136.475 189.232L134.027 196H133.003L130.107 187.984H131.147L133.515 194.832L136.011 187.984H136.987L139.403 194.832L141.835 187.984H142.827ZM144.703 187.984H145.663V196H144.703V187.984ZM145.855 184.672V185.92H144.559V184.672H145.855ZM149.704 188.768V193.536C149.704 194.176 149.826 194.619 150.072 194.864C150.317 195.109 150.68 195.232 151.16 195.232C151.458 195.232 151.746 195.184 152.024 195.088V195.968C151.682 196.053 151.336 196.096 150.984 196.096C150.28 196.096 149.725 195.899 149.32 195.504C148.925 195.109 148.728 194.517 148.728 193.728V188.768H147.144V187.984H148.728V185.856L149.704 185.488V187.984H152.072V188.768H149.704ZM157.462 187.792C159.393 187.792 160.358 188.827 160.358 190.896V196H159.382V190.96C159.382 190.16 159.217 189.573 158.886 189.2C158.566 188.827 158.06 188.64 157.366 188.64C156.566 188.64 155.921 188.885 155.43 189.376C154.94 189.867 154.694 190.528 154.694 191.36V196H153.734V184.224H154.694V189.376C154.95 188.853 155.318 188.459 155.798 188.192C156.278 187.925 156.833 187.792 157.462 187.792ZM170.246 196.112C169.51 196.112 168.86 195.941 168.294 195.6C167.74 195.259 167.308 194.773 166.998 194.144C166.7 193.515 166.55 192.784 166.55 191.952C166.55 191.12 166.7 190.389 166.998 189.76C167.308 189.131 167.74 188.645 168.294 188.304C168.86 187.963 169.51 187.792 170.246 187.792C170.972 187.792 171.612 187.963 172.166 188.304C172.721 188.645 173.148 189.131 173.446 189.76C173.756 190.389 173.91 191.12 173.91 191.952C173.91 192.784 173.756 193.515 173.446 194.144C173.148 194.773 172.721 195.259 172.166 195.6C171.612 195.941 170.972 196.112 170.246 196.112ZM170.23 195.248C171.084 195.248 171.74 194.965 172.198 194.4C172.668 193.824 172.902 193.008 172.902 191.952C172.902 190.907 172.668 190.096 172.198 189.52C171.729 188.933 171.078 188.64 170.246 188.64C169.404 188.64 168.748 188.933 168.278 189.52C167.809 190.096 167.574 190.907 167.574 191.952C167.574 193.019 167.804 193.835 168.262 194.4C168.721 194.965 169.377 195.248 170.23 195.248ZM182.495 187.984V196H181.551V194.544C181.295 195.056 180.932 195.445 180.463 195.712C179.993 195.979 179.455 196.112 178.847 196.112C177.908 196.112 177.199 195.851 176.719 195.328C176.239 194.805 175.999 194.032 175.999 193.008V187.984H176.959V192.944C176.959 193.733 177.119 194.315 177.439 194.688C177.759 195.061 178.255 195.248 178.927 195.248C179.716 195.248 180.345 195.003 180.815 194.512C181.284 194.011 181.519 193.349 181.519 192.528V187.984H182.495ZM188.612 187.792C188.879 187.792 189.113 187.813 189.316 187.856L189.268 188.736C189.065 188.693 188.82 188.672 188.532 188.672C187.721 188.672 187.113 188.933 186.708 189.456C186.313 189.968 186.116 190.581 186.116 191.296V196H185.156V190.208C185.156 189.376 185.113 188.635 185.028 187.984H185.956L186.084 189.472C186.287 188.928 186.612 188.512 187.06 188.224C187.519 187.936 188.036 187.792 188.612 187.792ZM196.172 188.768V193.536C196.172 194.176 196.295 194.619 196.54 194.864C196.786 195.109 197.148 195.232 197.628 195.232C197.927 195.232 198.215 195.184 198.492 195.088V195.968C198.151 196.053 197.804 196.096 197.452 196.096C196.748 196.096 196.194 195.899 195.788 195.504C195.394 195.109 195.196 194.517 195.196 193.728V188.768H193.612V187.984H195.196V185.856L196.172 185.488V187.984H198.54V188.768H196.172ZM203.659 187.792C203.926 187.792 204.16 187.813 204.363 187.856L204.315 188.736C204.112 188.693 203.867 188.672 203.579 188.672C202.768 188.672 202.16 188.933 201.755 189.456C201.36 189.968 201.163 190.581 201.163 191.296V196H200.203V190.208C200.203 189.376 200.16 188.635 200.075 187.984H201.003L201.131 189.472C201.334 188.928 201.659 188.512 202.107 188.224C202.566 187.936 203.083 187.792 203.659 187.792ZM212.229 187.984V196H211.285V194.544C211.029 195.056 210.666 195.445 210.197 195.712C209.728 195.979 209.189 196.112 208.581 196.112C207.642 196.112 206.933 195.851 206.453 195.328C205.973 194.805 205.733 194.032 205.733 193.008V187.984H206.693V192.944C206.693 193.733 206.853 194.315 207.173 194.688C207.493 195.061 207.989 195.248 208.661 195.248C209.45 195.248 210.08 195.003 210.549 194.512C211.018 194.011 211.253 193.349 211.253 192.528V187.984H212.229ZM217.499 196.112C216.197 196.112 215.168 195.755 214.411 195.04L214.763 194.288C215.189 194.64 215.616 194.891 216.043 195.04C216.48 195.189 216.981 195.264 217.547 195.264C218.208 195.264 218.709 195.152 219.051 194.928C219.403 194.693 219.579 194.357 219.579 193.92C219.579 193.557 219.461 193.275 219.227 193.072C219.003 192.859 218.629 192.688 218.107 192.56L216.747 192.256C216.107 192.107 215.6 191.84 215.227 191.456C214.864 191.072 214.683 190.624 214.683 190.112C214.683 189.408 214.949 188.848 215.483 188.432C216.027 188.005 216.747 187.792 217.643 187.792C218.208 187.792 218.731 187.883 219.211 188.064C219.701 188.245 220.107 188.507 220.427 188.848L220.059 189.6C219.323 188.96 218.517 188.64 217.643 188.64C217.024 188.64 216.544 188.763 216.203 189.008C215.861 189.253 215.691 189.595 215.691 190.032C215.691 190.395 215.797 190.688 216.011 190.912C216.235 191.136 216.576 191.301 217.035 191.408L218.411 191.744C219.851 192.064 220.571 192.773 220.571 193.872C220.571 194.544 220.293 195.088 219.739 195.504C219.184 195.909 218.437 196.112 217.499 196.112ZM224.079 188.768V193.536C224.079 194.176 224.201 194.619 224.447 194.864C224.692 195.109 225.055 195.232 225.535 195.232C225.833 195.232 226.121 195.184 226.399 195.088V195.968C226.057 196.053 225.711 196.096 225.359 196.096C224.655 196.096 224.1 195.899 223.695 195.504C223.3 195.109 223.103 194.517 223.103 193.728V188.768H221.519V187.984H223.103V185.856L224.079 185.488V187.984H226.447V188.768H224.079ZM228.621 191.872V191.92C228.621 192.997 228.867 193.824 229.357 194.4C229.859 194.965 230.584 195.248 231.533 195.248C232.493 195.248 233.373 194.917 234.173 194.256L234.557 195.024C234.205 195.355 233.757 195.621 233.213 195.824C232.669 196.016 232.109 196.112 231.533 196.112C230.317 196.112 229.357 195.744 228.653 195.008C227.949 194.272 227.597 193.259 227.597 191.968C227.597 191.147 227.752 190.421 228.061 189.792C228.381 189.152 228.824 188.661 229.389 188.32C229.955 187.968 230.605 187.792 231.341 187.792C232.397 187.792 233.219 188.133 233.805 188.816C234.403 189.499 234.701 190.448 234.701 191.664V191.872H228.621ZM231.341 188.592C230.605 188.592 230.008 188.816 229.549 189.264C229.091 189.701 228.803 190.32 228.685 191.12H233.773C233.709 190.299 233.469 189.675 233.053 189.248C232.637 188.811 232.067 188.592 231.341 188.592ZM243.597 184.224V196H242.621V194.464C242.386 194.997 242.029 195.408 241.549 195.696C241.079 195.973 240.514 196.112 239.853 196.112C239.149 196.112 238.525 195.941 237.981 195.6C237.447 195.248 237.031 194.757 236.733 194.128C236.434 193.488 236.285 192.752 236.285 191.92C236.285 191.088 236.429 190.363 236.717 189.744C237.015 189.115 237.431 188.635 237.965 188.304C238.509 187.963 239.138 187.792 239.853 187.792C240.503 187.792 241.063 187.931 241.533 188.208C242.013 188.485 242.375 188.891 242.621 189.424V184.224H243.597ZM239.981 195.248C240.823 195.248 241.474 194.96 241.933 194.384C242.391 193.808 242.621 192.997 242.621 191.952C242.621 190.907 242.391 190.096 241.933 189.52C241.474 188.933 240.829 188.64 239.997 188.64C239.143 188.64 238.482 188.928 238.013 189.504C237.543 190.08 237.309 190.885 237.309 191.92C237.309 192.965 237.543 193.781 238.013 194.368C238.482 194.955 239.138 195.248 239.981 195.248ZM9.128 212.224V224H8.152V222.464C7.91733 222.997 7.56 223.408 7.08 223.696C6.61067 223.973 6.04533 224.112 5.384 224.112C4.68 224.112 4.056 223.941 3.512 223.6C2.97867 223.248 2.56267 222.757 2.264 222.128C1.96533 221.488 1.816 220.752 1.816 219.92C1.816 219.088 1.96 218.363 2.248 217.744C2.54667 217.115 2.96267 216.635 3.496 216.304C4.04 215.963 4.66933 215.792 5.384 215.792C6.03467 215.792 6.59467 215.931 7.064 216.208C7.544 216.485 7.90667 216.891 8.152 217.424V212.224H9.128ZM5.512 223.248C6.35467 223.248 7.00533 222.96 7.464 222.384C7.92267 221.808 8.152 220.997 8.152 219.952C8.152 218.907 7.92267 218.096 7.464 217.52C7.00533 216.933 6.36 216.64 5.528 216.64C4.67467 216.64 4.01333 216.928 3.544 217.504C3.07467 218.08 2.84 218.885 2.84 219.92C2.84 220.965 3.07467 221.781 3.544 222.368C4.01333 222.955 4.66933 223.248 5.512 223.248ZM14.9651 224.112C14.2291 224.112 13.5785 223.941 13.0131 223.6C12.4585 223.259 12.0265 222.773 11.7171 222.144C11.4185 221.515 11.2691 220.784 11.2691 219.952C11.2691 219.12 11.4185 218.389 11.7171 217.76C12.0265 217.131 12.4585 216.645 13.0131 216.304C13.5785 215.963 14.2291 215.792 14.9651 215.792C15.6905 215.792 16.3305 215.963 16.8851 216.304C17.4398 216.645 17.8665 217.131 18.1651 217.76C18.4745 218.389 18.6291 219.12 18.6291 219.952C18.6291 220.784 18.4745 221.515 18.1651 222.144C17.8665 222.773 17.4398 223.259 16.8851 223.6C16.3305 223.941 15.6905 224.112 14.9651 224.112ZM14.9491 223.248C15.8025 223.248 16.4585 222.965 16.9171 222.4C17.3865 221.824 17.6211 221.008 17.6211 219.952C17.6211 218.907 17.3865 218.096 16.9171 217.52C16.4478 216.933 15.7971 216.64 14.9651 216.64C14.1225 216.64 13.4665 216.933 12.9971 217.52C12.5278 218.096 12.2931 218.907 12.2931 219.952C12.2931 221.019 12.5225 221.835 12.9811 222.4C13.4398 222.965 14.0958 223.248 14.9491 223.248ZM24.0135 224.112C23.2562 224.112 22.5948 223.941 22.0295 223.6C21.4642 223.259 21.0268 222.779 20.7175 222.16C20.4082 221.531 20.2535 220.805 20.2535 219.984C20.2535 219.152 20.4082 218.421 20.7175 217.792C21.0268 217.152 21.4695 216.661 22.0455 216.32C22.6215 215.968 23.2882 215.792 24.0455 215.792C24.5895 215.792 25.1068 215.888 25.5975 216.08C26.0988 216.261 26.5095 216.517 26.8295 216.848L26.4455 217.616C26.0295 217.275 25.6295 217.029 25.2455 216.88C24.8722 216.72 24.4828 216.64 24.0775 216.64C23.2135 216.64 22.5308 216.939 22.0295 217.536C21.5282 218.123 21.2775 218.939 21.2775 219.984C21.2775 221.008 21.5228 221.808 22.0135 222.384C22.5148 222.96 23.2028 223.248 24.0775 223.248C24.4828 223.248 24.8722 223.173 25.2455 223.024C25.6295 222.864 26.0295 222.619 26.4455 222.288L26.8295 223.04C26.4882 223.371 26.0615 223.632 25.5495 223.824C25.0482 224.016 24.5362 224.112 24.0135 224.112ZM29.9693 216.768V221.536C29.9693 222.176 30.0919 222.619 30.3373 222.864C30.5826 223.109 30.9453 223.232 31.4253 223.232C31.7239 223.232 32.0119 223.184 32.2893 223.088V223.968C31.9479 224.053 31.6013 224.096 31.2493 224.096C30.5453 224.096 29.9906 223.899 29.5853 223.504C29.1906 223.109 28.9933 222.517 28.9933 221.728V216.768H27.4093V215.984H28.9933V213.856L29.9693 213.488V215.984H32.3373V216.768H29.9693ZM37.1839 224.112C36.4479 224.112 35.7972 223.941 35.2319 223.6C34.6772 223.259 34.2452 222.773 33.9359 222.144C33.6372 221.515 33.4879 220.784 33.4879 219.952C33.4879 219.12 33.6372 218.389 33.9359 217.76C34.2452 217.131 34.6772 216.645 35.2319 216.304C35.7972 215.963 36.4479 215.792 37.1839 215.792C37.9092 215.792 38.5492 215.963 39.1039 216.304C39.6585 216.645 40.0852 217.131 40.3839 217.76C40.6932 218.389 40.8479 219.12 40.8479 219.952C40.8479 220.784 40.6932 221.515 40.3839 222.144C40.0852 222.773 39.6585 223.259 39.1039 223.6C38.5492 223.941 37.9092 224.112 37.1839 224.112ZM37.1679 223.248C38.0212 223.248 38.6772 222.965 39.1359 222.4C39.6052 221.824 39.8399 221.008 39.8399 219.952C39.8399 218.907 39.6052 218.096 39.1359 217.52C38.6665 216.933 38.0159 216.64 37.1839 216.64C36.3412 216.64 35.6852 216.933 35.2159 217.52C34.7465 218.096 34.5119 218.907 34.5119 219.952C34.5119 221.019 34.7412 221.835 35.1999 222.4C35.6585 222.965 36.3145 223.248 37.1679 223.248ZM46.4403 215.792C46.7069 215.792 46.9416 215.813 47.1443 215.856L47.0963 216.736C46.8936 216.693 46.6483 216.672 46.3602 216.672C45.5496 216.672 44.9416 216.933 44.5363 217.456C44.1416 217.968 43.9443 218.581 43.9443 219.296V224H42.9843V218.208C42.9843 217.376 42.9416 216.635 42.8563 215.984H43.7843L43.9123 217.472C44.1149 216.928 44.4403 216.512 44.8883 216.224C45.3469 215.936 45.8643 215.792 46.4403 215.792ZM51.0923 224.112C49.7909 224.112 48.7616 223.755 48.0043 223.04L48.3563 222.288C48.7829 222.64 49.2096 222.891 49.6363 223.04C50.0736 223.189 50.5749 223.264 51.1403 223.264C51.8016 223.264 52.3029 223.152 52.6443 222.928C52.9963 222.693 53.1723 222.357 53.1723 221.92C53.1723 221.557 53.0549 221.275 52.8203 221.072C52.5963 220.859 52.2229 220.688 51.7003 220.56L50.3403 220.256C49.7003 220.107 49.1936 219.84 48.8203 219.456C48.4576 219.072 48.2763 218.624 48.2763 218.112C48.2763 217.408 48.5429 216.848 49.0763 216.432C49.6203 216.005 50.3403 215.792 51.2363 215.792C51.8016 215.792 52.3243 215.883 52.8043 216.064C53.2949 216.245 53.7003 216.507 54.0203 216.848L53.6523 217.6C52.9163 216.96 52.1109 216.64 51.2363 216.64C50.6176 216.64 50.1376 216.763 49.7963 217.008C49.4549 217.253 49.2843 217.595 49.2843 218.032C49.2843 218.395 49.3909 218.688 49.6043 218.912C49.8283 219.136 50.1696 219.301 50.6283 219.408L52.0043 219.744C53.4443 220.064 54.1643 220.773 54.1643 221.872C54.1643 222.544 53.8869 223.088 53.3323 223.504C52.7776 223.909 52.0309 224.112 51.0923 224.112ZM67.2686 215.984V224H66.2926V222.464C66.058 222.997 65.7006 223.408 65.2206 223.696C64.7513 223.973 64.186 224.112 63.5246 224.112C62.81 224.112 62.1806 223.947 61.6366 223.616C61.1033 223.275 60.6873 222.795 60.3886 222.176C60.1006 221.547 59.9566 220.816 59.9566 219.984C59.9566 219.152 60.106 218.421 60.4046 217.792C60.7033 217.152 61.1193 216.661 61.6526 216.32C62.1966 215.968 62.8206 215.792 63.5246 215.792C64.1753 215.792 64.7353 215.931 65.2046 216.208C65.6846 216.485 66.0473 216.891 66.2926 217.424V215.984H67.2686ZM63.6686 223.248C64.5006 223.248 65.146 222.96 65.6046 222.384C66.0633 221.808 66.2926 220.997 66.2926 219.952C66.2926 218.896 66.0633 218.08 65.6046 217.504C65.146 216.928 64.4953 216.64 63.6526 216.64C62.81 216.64 62.154 216.939 61.6846 217.536C61.2153 218.123 60.9806 218.939 60.9806 219.984C60.9806 221.019 61.2153 221.824 61.6846 222.4C62.154 222.965 62.8153 223.248 63.6686 223.248ZM73.6498 215.792C75.5804 215.792 76.5458 216.827 76.5458 218.896V224H75.5698V218.96C75.5698 218.16 75.4044 217.573 75.0738 217.2C74.7538 216.827 74.2471 216.64 73.5538 216.64C72.7538 216.64 72.1084 216.885 71.6178 217.376C71.1271 217.867 70.8818 218.528 70.8818 219.36V224H69.9218V218.208C69.9218 217.376 69.8791 216.635 69.7938 215.984H70.7218L70.8498 217.456C71.0951 216.912 71.4631 216.501 71.9538 216.224C72.4444 215.936 73.0098 215.792 73.6498 215.792ZM85.9718 212.224V224H84.9958V222.464C84.7611 222.997 84.4038 223.408 83.9238 223.696C83.4544 223.973 82.8891 224.112 82.2278 224.112C81.5238 224.112 80.8998 223.941 80.3558 223.6C79.8224 223.248 79.4064 222.757 79.1078 222.128C78.8091 221.488 78.6598 220.752 78.6598 219.92C78.6598 219.088 78.8038 218.363 79.0918 217.744C79.3904 217.115 79.8064 216.635 80.3398 216.304C80.8838 215.963 81.5131 215.792 82.2278 215.792C82.8784 215.792 83.4384 215.931 83.9078 216.208C84.3878 216.485 84.7504 216.891 84.9958 217.424V212.224H85.9718ZM82.3558 223.248C83.1984 223.248 83.8491 222.96 84.3078 222.384C84.7664 221.808 84.9958 220.997 84.9958 219.952C84.9958 218.907 84.7664 218.096 84.3078 217.52C83.8491 216.933 83.2038 216.64 82.3718 216.64C81.5184 216.64 80.8571 216.928 80.3878 217.504C79.9184 218.08 79.6838 218.885 79.6838 219.92C79.6838 220.965 79.9184 221.781 80.3878 222.368C80.8571 222.955 81.5131 223.248 82.3558 223.248ZM99.567 215.984V224.032C99.567 225.195 99.279 226.075 98.703 226.672C98.127 227.269 97.279 227.568 96.159 227.568C94.9643 227.568 93.9243 227.28 93.039 226.704L93.231 225.856C93.7537 226.165 94.2337 226.384 94.671 226.512C95.1083 226.64 95.6097 226.704 96.175 226.704C96.975 226.704 97.5777 226.485 97.983 226.048C98.399 225.611 98.607 224.971 98.607 224.128V222.064C98.3617 222.608 97.999 223.029 97.519 223.328C97.039 223.616 96.463 223.76 95.791 223.76C95.087 223.76 94.463 223.595 93.919 223.264C93.375 222.923 92.9483 222.453 92.639 221.856C92.3403 221.248 92.191 220.555 92.191 219.776C92.191 218.987 92.3403 218.293 92.639 217.696C92.9483 217.088 93.375 216.619 93.919 216.288C94.463 215.957 95.087 215.792 95.791 215.792C96.463 215.792 97.0337 215.931 97.503 216.208C97.983 216.485 98.3457 216.891 98.591 217.424V215.984H99.567ZM95.919 222.88C96.751 222.88 97.4017 222.603 97.871 222.048C98.351 221.493 98.591 220.736 98.591 219.776C98.591 218.805 98.351 218.043 97.871 217.488C97.4017 216.923 96.751 216.64 95.919 216.64C95.0763 216.64 94.415 216.923 93.935 217.488C93.455 218.043 93.215 218.805 93.215 219.776C93.215 220.747 93.455 221.509 93.935 222.064C94.415 222.608 95.0763 222.88 95.919 222.88ZM102.731 219.872V219.92C102.731 220.997 102.976 221.824 103.467 222.4C103.968 222.965 104.693 223.248 105.643 223.248C106.603 223.248 107.483 222.917 108.283 222.256L108.667 223.024C108.315 223.355 107.867 223.621 107.323 223.824C106.779 224.016 106.219 224.112 105.643 224.112C104.427 224.112 103.467 223.744 102.763 223.008C102.059 222.272 101.707 221.259 101.707 219.968C101.707 219.147 101.861 218.421 102.171 217.792C102.491 217.152 102.933 216.661 103.499 216.32C104.064 215.968 104.715 215.792 105.451 215.792C106.507 215.792 107.328 216.133 107.915 216.816C108.512 217.499 108.811 218.448 108.811 219.664V219.872H102.731ZM105.451 216.592C104.715 216.592 104.117 216.816 103.659 217.264C103.2 217.701 102.912 218.32 102.795 219.12H107.883C107.819 218.299 107.579 217.675 107.163 217.248C106.747 216.811 106.176 216.592 105.451 216.592ZM112.251 216.768V221.536C112.251 222.176 112.373 222.619 112.619 222.864C112.864 223.109 113.227 223.232 113.707 223.232C114.005 223.232 114.293 223.184 114.571 223.088V223.968C114.229 224.053 113.883 224.096 113.531 224.096C112.827 224.096 112.272 223.899 111.867 223.504C111.472 223.109 111.275 222.517 111.275 221.728V216.768H109.691V215.984H111.275V213.856L112.251 213.488V215.984H114.619V216.768H112.251ZM121.719 216.768V221.536C121.719 222.176 121.842 222.619 122.087 222.864C122.333 223.109 122.695 223.232 123.175 223.232C123.474 223.232 123.762 223.184 124.039 223.088V223.968C123.698 224.053 123.351 224.096 122.999 224.096C122.295 224.096 121.741 223.899 121.335 223.504C120.941 223.109 120.743 222.517 120.743 221.728V216.768H119.159V215.984H120.743V213.856L121.719 213.488V215.984H124.087V216.768H121.719ZM129.478 215.792C131.409 215.792 132.374 216.827 132.374 218.896V224H131.398V218.96C131.398 218.16 131.233 217.573 130.902 217.2C130.582 216.827 130.075 216.64 129.382 216.64C128.582 216.64 127.937 216.885 127.446 217.376C126.955 217.867 126.71 218.528 126.71 219.36V224H125.75V212.224H126.71V217.376C126.966 216.853 127.334 216.459 127.814 216.192C128.294 215.925 128.849 215.792 129.478 215.792ZM135.512 219.872V219.92C135.512 220.997 135.757 221.824 136.248 222.4C136.749 222.965 137.475 223.248 138.424 223.248C139.384 223.248 140.264 222.917 141.064 222.256L141.448 223.024C141.096 223.355 140.648 223.621 140.104 223.824C139.56 224.016 139 224.112 138.424 224.112C137.208 224.112 136.248 223.744 135.544 223.008C134.84 222.272 134.488 221.259 134.488 219.968C134.488 219.147 134.643 218.421 134.952 217.792C135.272 217.152 135.715 216.661 136.28 216.32C136.845 215.968 137.496 215.792 138.232 215.792C139.288 215.792 140.109 216.133 140.696 216.816C141.293 217.499 141.592 218.448 141.592 219.664V219.872H135.512ZM138.232 216.592C137.496 216.592 136.899 216.816 136.44 217.264C135.981 217.701 135.693 218.32 135.576 219.12H140.664C140.6 218.299 140.36 217.675 139.944 217.248C139.528 216.811 138.957 216.592 138.232 216.592ZM151.51 215.792C152.214 215.792 152.838 215.963 153.382 216.304C153.926 216.645 154.342 217.125 154.63 217.744C154.928 218.363 155.078 219.088 155.078 219.92C155.078 220.752 154.928 221.488 154.63 222.128C154.331 222.757 153.91 223.248 153.366 223.6C152.832 223.941 152.214 224.112 151.51 224.112C150.848 224.112 150.278 223.968 149.798 223.68C149.328 223.392 148.976 222.976 148.742 222.432V224H147.766V212.224H148.726V217.488C148.96 216.933 149.318 216.512 149.798 216.224C150.278 215.936 150.848 215.792 151.51 215.792ZM151.398 223.248C152.23 223.248 152.88 222.955 153.35 222.368C153.819 221.781 154.054 220.965 154.054 219.92C154.054 218.885 153.819 218.08 153.35 217.504C152.88 216.928 152.224 216.64 151.382 216.64C150.539 216.64 149.888 216.928 149.43 217.504C148.971 218.08 148.742 218.896 148.742 219.952C148.742 221.008 148.971 221.824 149.43 222.4C149.888 222.965 150.544 223.248 151.398 223.248ZM157.731 219.872V219.92C157.731 220.997 157.976 221.824 158.467 222.4C158.968 222.965 159.693 223.248 160.643 223.248C161.603 223.248 162.483 222.917 163.283 222.256L163.667 223.024C163.315 223.355 162.867 223.621 162.323 223.824C161.779 224.016 161.219 224.112 160.643 224.112C159.427 224.112 158.467 223.744 157.763 223.008C157.059 222.272 156.707 221.259 156.707 219.968C156.707 219.147 156.861 218.421 157.171 217.792C157.491 217.152 157.933 216.661 158.499 216.32C159.064 215.968 159.715 215.792 160.451 215.792C161.507 215.792 162.328 216.133 162.915 216.816C163.512 217.499 163.811 218.448 163.811 219.664V219.872H157.731ZM160.451 216.592C159.715 216.592 159.117 216.816 158.659 217.264C158.2 217.701 157.912 218.32 157.795 219.12H162.883C162.819 218.299 162.579 217.675 162.163 217.248C161.747 216.811 161.176 216.592 160.451 216.592ZM168.514 224.112C167.213 224.112 166.183 223.755 165.426 223.04L165.778 222.288C166.205 222.64 166.631 222.891 167.058 223.04C167.495 223.189 167.997 223.264 168.562 223.264C169.223 223.264 169.725 223.152 170.066 222.928C170.418 222.693 170.594 222.357 170.594 221.92C170.594 221.557 170.477 221.275 170.242 221.072C170.018 220.859 169.645 220.688 169.122 220.56L167.762 220.256C167.122 220.107 166.615 219.84 166.242 219.456C165.879 219.072 165.698 218.624 165.698 218.112C165.698 217.408 165.965 216.848 166.498 216.432C167.042 216.005 167.762 215.792 168.658 215.792C169.223 215.792 169.746 215.883 170.226 216.064C170.717 216.245 171.122 216.507 171.442 216.848L171.074 217.6C170.338 216.96 169.533 216.64 168.658 216.64C168.039 216.64 167.559 216.763 167.218 217.008C166.877 217.253 166.706 217.595 166.706 218.032C166.706 218.395 166.813 218.688 167.026 218.912C167.25 219.136 167.591 219.301 168.05 219.408L169.426 219.744C170.866 220.064 171.586 220.773 171.586 221.872C171.586 222.544 171.309 223.088 170.754 223.504C170.199 223.909 169.453 224.112 168.514 224.112ZM175.094 216.768V221.536C175.094 222.176 175.217 222.619 175.462 222.864C175.708 223.109 176.07 223.232 176.55 223.232C176.849 223.232 177.137 223.184 177.414 223.088V223.968C177.073 224.053 176.726 224.096 176.374 224.096C175.67 224.096 175.116 223.899 174.71 223.504C174.316 223.109 174.118 222.517 174.118 221.728V216.768H172.534V215.984H174.118V213.856L175.094 213.488V215.984H177.462V216.768H175.094ZM5.784 243.792C6.05067 243.792 6.28533 243.813 6.488 243.856L6.44 244.736C6.23733 244.693 5.992 244.672 5.704 244.672C4.89333 244.672 4.28533 244.933 3.88 245.456C3.48533 245.968 3.288 246.581 3.288 247.296V252H2.328V246.208C2.328 245.376 2.28533 244.635 2.2 243.984H3.128L3.256 245.472C3.45867 244.928 3.784 244.512 4.232 244.224C4.69067 243.936 5.208 243.792 5.784 243.792ZM8.26188 247.872V247.92C8.26188 248.997 8.50721 249.824 8.99788 250.4C9.49921 250.965 10.2245 251.248 11.1739 251.248C12.1339 251.248 13.0139 250.917 13.8139 250.256L14.1979 251.024C13.8459 251.355 13.3979 251.621 12.8539 251.824C12.3099 252.016 11.7499 252.112 11.1739 252.112C9.95788 252.112 8.99788 251.744 8.29388 251.008C7.58988 250.272 7.23788 249.259 7.23788 247.968C7.23788 247.147 7.39254 246.421 7.70188 245.792C8.02188 245.152 8.46454 244.661 9.02988 244.32C9.59521 243.968 10.2459 243.792 10.9819 243.792C12.0379 243.792 12.8592 244.133 13.4459 244.816C14.0432 245.499 14.3419 246.448 14.3419 247.664V247.872H8.26188ZM10.9819 244.592C10.2459 244.592 9.64854 244.816 9.18988 245.264C8.73121 245.701 8.44321 246.32 8.32588 247.12H13.4139C13.3499 246.299 13.1099 245.675 12.6939 245.248C12.2779 244.811 11.7072 244.592 10.9819 244.592ZM19.6854 252.112C18.928 252.112 18.2667 251.941 17.7014 251.6C17.136 251.259 16.6987 250.779 16.3894 250.16C16.08 249.531 15.9254 248.805 15.9254 247.984C15.9254 247.152 16.08 246.421 16.3894 245.792C16.6987 245.152 17.1414 244.661 17.7174 244.32C18.2934 243.968 18.96 243.792 19.7174 243.792C20.2614 243.792 20.7787 243.888 21.2694 244.08C21.7707 244.261 22.1814 244.517 22.5014 244.848L22.1174 245.616C21.7014 245.275 21.3014 245.029 20.9174 244.88C20.544 244.72 20.1547 244.64 19.7494 244.64C18.8854 244.64 18.2027 244.939 17.7014 245.536C17.2 246.123 16.9494 246.939 16.9494 247.984C16.9494 249.008 17.1947 249.808 17.6854 250.384C18.1867 250.96 18.8747 251.248 19.7494 251.248C20.1547 251.248 20.544 251.173 20.9174 251.024C21.3014 250.864 21.7014 250.619 22.1174 250.288L22.5014 251.04C22.16 251.371 21.7334 251.632 21.2214 251.824C20.72 252.016 20.208 252.112 19.6854 252.112ZM27.4651 252.112C26.7291 252.112 26.0785 251.941 25.5131 251.6C24.9585 251.259 24.5265 250.773 24.2171 250.144C23.9185 249.515 23.7691 248.784 23.7691 247.952C23.7691 247.12 23.9185 246.389 24.2171 245.76C24.5265 245.131 24.9585 244.645 25.5131 244.304C26.0785 243.963 26.7291 243.792 27.4651 243.792C28.1905 243.792 28.8305 243.963 29.3851 244.304C29.9398 244.645 30.3665 245.131 30.6651 245.76C30.9745 246.389 31.1291 247.12 31.1291 247.952C31.1291 248.784 30.9745 249.515 30.6651 250.144C30.3665 250.773 29.9398 251.259 29.3851 251.6C28.8305 251.941 28.1905 252.112 27.4651 252.112ZM27.4491 251.248C28.3025 251.248 28.9585 250.965 29.4171 250.4C29.8865 249.824 30.1211 249.008 30.1211 247.952C30.1211 246.907 29.8865 246.096 29.4171 245.52C28.9478 244.933 28.2971 244.64 27.4651 244.64C26.6225 244.64 25.9665 244.933 25.4971 245.52C25.0278 246.096 24.7931 246.907 24.7931 247.952C24.7931 249.019 25.0225 249.835 25.4811 250.4C25.9398 250.965 26.5958 251.248 27.4491 251.248ZM41.9055 243.792C43.6762 243.792 44.5615 244.827 44.5615 246.896V252H43.5855V246.96C43.5855 246.149 43.4415 245.563 43.1535 245.2C42.8655 244.827 42.4068 244.64 41.7775 244.64C41.0415 244.64 40.4602 244.885 40.0335 245.376C39.6175 245.867 39.4095 246.533 39.4095 247.376V252H38.4335V246.96C38.4335 246.149 38.2842 245.563 37.9855 245.2C37.6975 244.827 37.2388 244.64 36.6095 244.64C35.8842 244.64 35.3028 244.885 34.8655 245.376C34.4388 245.867 34.2255 246.533 34.2255 247.376V252H33.2655V246.208C33.2655 245.376 33.2228 244.635 33.1375 243.984H34.0655L34.1935 245.424C34.4175 244.891 34.7482 244.485 35.1855 244.208C35.6335 243.931 36.1508 243.792 36.7375 243.792C38.0282 243.792 38.8548 244.315 39.2175 245.36C39.4415 244.869 39.7882 244.485 40.2575 244.208C40.7375 243.931 41.2868 243.792 41.9055 243.792ZM47.6838 247.872V247.92C47.6838 248.997 47.9291 249.824 48.4198 250.4C48.9211 250.965 49.6464 251.248 50.5958 251.248C51.5558 251.248 52.4358 250.917 53.2358 250.256L53.6198 251.024C53.2678 251.355 52.8198 251.621 52.2758 251.824C51.7318 252.016 51.1718 252.112 50.5958 252.112C49.3798 252.112 48.4198 251.744 47.7158 251.008C47.0118 250.272 46.6598 249.259 46.6598 247.968C46.6598 247.147 46.8144 246.421 47.1238 245.792C47.4438 245.152 47.8864 244.661 48.4518 244.32C49.0171 243.968 49.6678 243.792 50.4038 243.792C51.4598 243.792 52.2811 244.133 52.8678 244.816C53.4651 245.499 53.7638 246.448 53.7638 247.664V247.872H47.6838ZM50.4038 244.592C49.6678 244.592 49.0704 244.816 48.6118 245.264C48.1531 245.701 47.8651 246.32 47.7478 247.12H52.8358C52.7718 246.299 52.5318 245.675 52.1158 245.248C51.6998 244.811 51.1291 244.592 50.4038 244.592ZM59.5873 243.792C61.5179 243.792 62.4833 244.827 62.4833 246.896V252H61.5073V246.96C61.5073 246.16 61.3419 245.573 61.0113 245.2C60.6913 244.827 60.1846 244.64 59.4913 244.64C58.6913 244.64 58.0459 244.885 57.5553 245.376C57.0646 245.867 56.8193 246.528 56.8193 247.36V252H55.8593V246.208C55.8593 245.376 55.8166 244.635 55.7313 243.984H56.6593L56.7873 245.456C57.0326 244.912 57.4006 244.501 57.8913 244.224C58.3819 243.936 58.9473 243.792 59.5873 243.792ZM71.9093 240.224V252H70.9333V250.464C70.6986 250.997 70.3413 251.408 69.8613 251.696C69.3919 251.973 68.8266 252.112 68.1653 252.112C67.4613 252.112 66.8373 251.941 66.2933 251.6C65.7599 251.248 65.3439 250.757 65.0453 250.128C64.7466 249.488 64.5973 248.752 64.5973 247.92C64.5973 247.088 64.7413 246.363 65.0293 245.744C65.3279 245.115 65.7439 244.635 66.2773 244.304C66.8213 243.963 67.4506 243.792 68.1653 243.792C68.8159 243.792 69.3759 243.931 69.8453 244.208C70.3253 244.485 70.6879 244.891 70.9333 245.424V240.224H71.9093ZM68.2933 251.248C69.1359 251.248 69.7866 250.96 70.2453 250.384C70.7039 249.808 70.9333 248.997 70.9333 247.952C70.9333 246.907 70.7039 246.096 70.2453 245.52C69.7866 244.933 69.1413 244.64 68.3093 244.64C67.4559 244.64 66.7946 244.928 66.3253 245.504C65.8559 246.08 65.6213 246.885 65.6213 247.92C65.6213 248.965 65.8559 249.781 66.3253 250.368C66.7946 250.955 67.4506 251.248 68.2933 251.248ZM81.3624 243.984V252H80.3864V250.464C80.1517 250.997 79.7944 251.408 79.3144 251.696C78.845 251.973 78.2797 252.112 77.6184 252.112C76.9037 252.112 76.2744 251.947 75.7304 251.616C75.197 251.275 74.781 250.795 74.4824 250.176C74.1944 249.547 74.0504 248.816 74.0504 247.984C74.0504 247.152 74.1997 246.421 74.4984 245.792C74.797 245.152 75.213 244.661 75.7464 244.32C76.2904 243.968 76.9144 243.792 77.6184 243.792C78.269 243.792 78.829 243.931 79.2984 244.208C79.7784 244.485 80.141 244.891 80.3864 245.424V243.984H81.3624ZM77.7624 251.248C78.5944 251.248 79.2397 250.96 79.6984 250.384C80.157 249.808 80.3864 248.997 80.3864 247.952C80.3864 246.896 80.157 246.08 79.6984 245.504C79.2397 244.928 78.589 244.64 77.7464 244.64C76.9037 244.64 76.2477 244.939 75.7784 245.536C75.309 246.123 75.0744 246.939 75.0744 247.984C75.0744 249.019 75.309 249.824 75.7784 250.4C76.2477 250.965 76.909 251.248 77.7624 251.248ZM85.3755 244.768V249.536C85.3755 250.176 85.4982 250.619 85.7435 250.864C85.9888 251.109 86.3515 251.232 86.8315 251.232C87.1302 251.232 87.4182 251.184 87.6955 251.088V251.968C87.3542 252.053 87.0075 252.096 86.6555 252.096C85.9515 252.096 85.3968 251.899 84.9915 251.504C84.5968 251.109 84.3995 250.517 84.3995 249.728V244.768H82.8155V243.984H84.3995V241.856L85.3755 241.488V243.984H87.7435V244.768H85.3755ZM89.4061 243.984H90.3661V252H89.4061V243.984ZM90.5581 240.672V241.92H89.2621V240.672H90.5581ZM96.2308 252.112C95.4948 252.112 94.8441 251.941 94.2788 251.6C93.7241 251.259 93.2921 250.773 92.9828 250.144C92.6841 249.515 92.5348 248.784 92.5348 247.952C92.5348 247.12 92.6841 246.389 92.9828 245.76C93.2921 245.131 93.7241 244.645 94.2788 244.304C94.8441 243.963 95.4948 243.792 96.2308 243.792C96.9561 243.792 97.5961 243.963 98.1508 244.304C98.7054 244.645 99.1321 245.131 99.4308 245.76C99.7401 246.389 99.8948 247.12 99.8948 247.952C99.8948 248.784 99.7401 249.515 99.4308 250.144C99.1321 250.773 98.7054 251.259 98.1508 251.6C97.5961 251.941 96.9561 252.112 96.2308 252.112ZM96.2148 251.248C97.0681 251.248 97.7241 250.965 98.1828 250.4C98.6521 249.824 98.8868 249.008 98.8868 247.952C98.8868 246.907 98.6521 246.096 98.1828 245.52C97.7134 244.933 97.0628 244.64 96.2308 244.64C95.3881 244.64 94.7321 244.933 94.2628 245.52C93.7934 246.096 93.5588 246.907 93.5588 247.952C93.5588 249.019 93.7881 249.835 94.2468 250.4C94.7054 250.965 95.3614 251.248 96.2148 251.248ZM105.759 243.792C107.69 243.792 108.655 244.827 108.655 246.896V252H107.679V246.96C107.679 246.16 107.514 245.573 107.183 245.2C106.863 244.827 106.356 244.64 105.663 244.64C104.863 244.64 104.218 244.885 103.727 245.376C103.236 245.867 102.991 246.528 102.991 247.36V252H102.031V246.208C102.031 245.376 101.988 244.635 101.903 243.984H102.831L102.959 245.456C103.204 244.912 103.572 244.501 104.063 244.224C104.554 243.936 105.119 243.792 105.759 243.792ZM113.889 252.112C112.588 252.112 111.558 251.755 110.801 251.04L111.153 250.288C111.58 250.64 112.006 250.891 112.433 251.04C112.87 251.189 113.372 251.264 113.937 251.264C114.598 251.264 115.1 251.152 115.441 250.928C115.793 250.693 115.969 250.357 115.969 249.92C115.969 249.557 115.852 249.275 115.617 249.072C115.393 248.859 115.02 248.688 114.497 248.56L113.137 248.256C112.497 248.107 111.99 247.84 111.617 247.456C111.254 247.072 111.073 246.624 111.073 246.112C111.073 245.408 111.34 244.848 111.873 244.432C112.417 244.005 113.137 243.792 114.033 243.792C114.598 243.792 115.121 243.883 115.601 244.064C116.092 244.245 116.497 244.507 116.817 244.848L116.449 245.6C115.713 244.96 114.908 244.64 114.033 244.64C113.414 244.64 112.934 244.763 112.593 245.008C112.252 245.253 112.081 245.595 112.081 246.032C112.081 246.395 112.188 246.688 112.401 246.912C112.625 247.136 112.966 247.301 113.425 247.408L114.801 247.744C116.241 248.064 116.961 248.773 116.961 249.872C116.961 250.544 116.684 251.088 116.129 251.504C115.574 251.909 114.828 252.112 113.889 252.112Z" fill="#7D7987"/>
<defs>
<linearGradient id="paint0_linear_33_15" x1="4.07698" y1="45.0301" x2="67.3445" y2="50.4539" gradientUnits="userSpaceOnUse">
<stop stop-color="#6CBCFC"/>
<stop offset="1" stop-color="#458DFC"/>
</linearGradient>
<linearGradient id="paint1_linear_33_15" x1="18.6708" y1="19.2924" x2="48.4654" y2="34.6685" gradientUnits="userSpaceOnUse">
<stop stop-color="#B0F4FF"/>
<stop offset="0.0856277" stop-color="#A3F0FE"/>
<stop offset="0.2972" stop-color="#8AE7FD"/>
<stop offset="0.5161" stop-color="#77E1FD"/>
<stop offset="0.7451" stop-color="#6DDDFC"/>
<stop offset="1" stop-color="#69DCFC"/>
</linearGradient>
<linearGradient id="paint2_linear_33_15" x1="54.8137" y1="49.257" x2="12.4813" y2="49.257" gradientUnits="userSpaceOnUse">
<stop stop-color="#6CBCFC"/>
<stop offset="1" stop-color="#458DFC"/>
</linearGradient>
<linearGradient id="paint3_linear_33_15" x1="47.6026" y1="59.5877" x2="12.4813" y2="59.5877" gradientUnits="userSpaceOnUse">
<stop stop-color="#6CBCFC"/>
<stop offset="1" stop-color="#458DFC"/>
</linearGradient>
<linearGradient id="paint4_linear_33_15" x1="41.2336" y1="65.7799" x2="12.4813" y2="65.7799" gradientUnits="userSpaceOnUse">
<stop stop-color="#6CBCFC"/>
<stop offset="1" stop-color="#458DFC"/>
</linearGradient>
<linearGradient id="paint5_linear_33_15" x1="44.6574" y1="71.5124" x2="12.4813" y2="71.5124" gradientUnits="userSpaceOnUse">
<stop stop-color="#6CBCFC"/>
<stop offset="1" stop-color="#458DFC"/>
</linearGradient>
<clipPath id="clip0_33_15">
<rect width="67.2917" height="95" fill="white"/>
</clipPath>
</defs>
</svg>
